<svg xmlns="http://www.w3.org/2000/svg" width="1024" height="1024" viewBox="0 0 1024 1024" version="1.1"><path d="M 498 368.470 C 497.175 368.662, 493.125 369.364, 489 370.028 C 484.875 370.693, 481.129 371.456, 480.676 371.723 C 480.223 371.990, 482.248 374.392, 485.176 377.059 L 490.500 381.909 513.672 381.955 L 536.844 382 540.916 377.250 C 543.155 374.637, 544.990 372.211, 544.994 371.857 C 545.009 370.356, 531.342 368.748, 516 368.446 C 506.925 368.267, 498.825 368.278, 498 368.470 M 464.992 376.412 C 455.106 380.423, 442.732 387.327, 434.536 393.403 C 424.221 401.051, 416 408.833, 416 410.951 C 416 413.133, 420.018 425, 420.756 425 C 422.269 425, 456.777 418.816, 458.689 418.203 C 460.543 417.607, 482.289 390.015, 483.604 386.590 C 484.227 384.966, 474.181 373.982, 472.170 374.088 C 471.252 374.137, 468.021 375.183, 464.992 376.412 M 547.082 379.906 L 541.847 385.948 553.515 401.978 C 560.996 412.256, 565.958 418.174, 567.342 418.470 C 568.529 418.725, 576.250 420.058, 584.500 421.434 C 592.750 422.809, 600.879 424.214, 602.564 424.555 C 605.592 425.168, 605.655 425.094, 607.971 418.292 C 610.289 411.483, 610.294 411.379, 608.420 408.518 C 605.604 404.220, 589.339 391.119, 580.647 386.148 C 572.741 381.626, 559.401 375.586, 554.908 374.493 C 552.659 373.946, 551.625 374.661, 547.082 379.906 M 487.960 392.237 C 486.562 394.032, 481.219 401.267, 476.086 408.315 C 468.698 418.459, 466.935 421.516, 467.626 422.979 C 468.107 423.996, 472.775 432.514, 478 441.908 L 487.500 458.988 512.900 458.744 L 538.300 458.500 548.650 440.505 C 554.342 430.607, 558.987 422.057, 558.971 421.505 C 558.955 420.952, 553.842 413.525, 547.609 405 L 536.275 389.500 513.388 389.237 L 490.500 388.974 487.960 392.237 M 402.555 426.322 C 398.392 432.572, 393.208 441.787, 391.034 446.799 C 387.095 455.881, 383.481 466.815, 384.186 467.519 C 384.390 467.723, 387.024 466.774, 390.040 465.409 C 394.804 463.254, 395.916 462.179, 398.512 457.214 C 400.155 454.071, 404.521 446.223, 408.214 439.774 L 414.928 428.048 413.464 423.898 C 412.659 421.616, 412 418.932, 412 417.933 C 412 413.585, 409.643 415.678, 402.555 426.322 M 614.520 417.137 C 614.244 417.887, 613.353 420.735, 612.542 423.466 L 611.066 428.432 616.891 438.966 C 620.095 444.760, 624.383 452.709, 626.420 456.631 C 629.950 463.429, 630.387 463.860, 635.768 465.842 C 638.872 466.986, 641.591 467.743, 641.809 467.525 C 642.533 466.800, 637.787 453.636, 633.374 444.129 C 629.089 434.900, 619.539 419.522, 616.552 417.043 C 615.310 416.013, 614.929 416.030, 614.520 417.137 M 439.271 428.379 C 429.245 430.128, 420.621 431.995, 420.108 432.529 C 418.287 434.422, 401 465.353, 401 466.718 C 401 468.161, 409.529 493.433, 412.434 500.598 L 414.096 504.696 426.798 505.344 C 433.784 505.700, 443.325 505.988, 448 505.984 L 456.500 505.976 459.900 499.738 C 461.769 496.307, 467.282 486.861, 472.150 478.746 C 477.017 470.631, 481 463.482, 481 462.859 C 481 460.294, 460.442 425.014, 459 425.104 C 458.175 425.156, 449.297 426.630, 439.271 428.379 M 563.660 428.774 C 558.571 436.895, 545 461.695, 545 462.874 C 545 463.563, 549.198 471.185, 554.329 479.813 C 559.461 488.441, 564.973 497.862, 566.579 500.749 L 569.500 505.998 578 505.995 C 582.675 505.993, 592.174 505.702, 599.110 505.349 L 611.720 504.706 616.741 491.103 C 619.502 483.621, 622.529 475.130, 623.467 472.233 L 625.172 466.965 615.333 449.250 L 605.494 431.535 588.497 428.834 C 579.149 427.349, 570.261 425.889, 568.747 425.591 C 566.394 425.128, 565.655 425.590, 563.660 428.774 M 476.398 485.608 C 469.989 496.392, 464.276 506.457, 463.704 507.974 C 462.749 510.504, 463.684 512.432, 475.009 531.273 L 487.356 551.814 500.529 552.520 C 519.634 553.543, 536.582 552.860, 538.382 550.994 C 540.610 548.683, 563 511.330, 563 509.923 C 563 508.525, 561.840 506.459, 547.751 482.750 L 537.797 466 512.924 466 L 488.051 466 476.398 485.608 M 387.308 473.351 C 384.452 474.561, 381.896 475.770, 381.629 476.038 C 381.361 476.306, 380.614 482.144, 379.970 489.012 C 378.626 503.322, 379.641 517.463, 383.054 532 L 385.124 540.818 390.598 543.040 C 393.609 544.262, 396.249 545.085, 396.465 544.869 C 396.681 544.653, 399.505 536.369, 402.741 526.461 C 408.395 509.149, 408.568 508.311, 407.182 504.973 C 406.389 503.063, 403.373 494.750, 400.481 486.500 C 397.387 477.675, 394.662 471.428, 393.861 471.326 C 393.113 471.230, 390.164 472.141, 387.308 473.351 M 630.474 472.250 C 630.220 472.938, 627.136 481.446, 623.622 491.157 L 617.232 508.814 621.521 522.657 C 623.879 530.271, 626.319 538.413, 626.943 540.750 C 628.270 545.724, 629.244 545.924, 635.853 542.575 C 641.324 539.802, 641.867 538.583, 644.569 523 C 646.417 512.342, 646.250 481.030, 644.327 477.611 C 643.743 476.571, 640.653 474.659, 637.462 473.361 C 630.669 470.597, 631.063 470.659, 630.474 472.250 M 413.071 516.333 C 410.296 522.808, 403 545.855, 403 548.147 C 403 549.961, 421.287 580.441, 423.018 581.511 C 423.480 581.797, 432.234 583.778, 442.471 585.915 L 461.085 589.800 462.448 587.650 C 463.197 586.468, 467.859 578.802, 472.806 570.616 L 481.801 555.732 475.222 545.116 C 471.603 539.277, 465.780 529.663, 462.282 523.750 L 455.922 513 449.711 512.996 C 446.295 512.994, 437.101 512.700, 429.281 512.342 L 415.061 511.692 413.071 516.333 M 582.144 512.935 L 569.788 513.500 556.909 534.875 L 544.031 556.250 553.618 572.196 C 558.891 580.966, 563.939 588.423, 564.836 588.767 C 566.709 589.486, 597.101 583.543, 600.897 581.715 C 602.473 580.956, 607.127 574.619, 613.293 564.836 L 623.165 549.172 617.300 530.836 L 611.436 512.500 602.968 512.435 C 598.310 512.399, 588.940 512.624, 582.144 512.935 M 388.954 551.379 C 393.015 562.061, 405.883 583.093, 412.542 589.933 L 414.911 592.365 415.955 589.617 C 416.530 588.106, 417 586, 417 584.937 C 417 583.874, 412.613 576.047, 407.250 567.542 C 398.834 554.195, 396.984 551.869, 393.730 550.540 C 388.566 548.431, 387.879 548.552, 388.954 551.379 M 631.402 550.905 C 629.148 551.929, 627.039 553.457, 626.715 554.301 C 626.391 555.145, 622.018 562.187, 616.997 569.951 C 608.092 583.720, 607.895 584.152, 609.006 587.520 C 609.633 589.419, 610.471 591.173, 610.867 591.418 C 611.639 591.895, 618.708 583.404, 623.703 576 C 626.930 571.217, 635.264 555.017, 636.435 551.250 C 637.278 548.538, 636.701 548.498, 631.402 550.905 M 477.644 576.108 C 470.097 588.436, 467.988 592.632, 468.644 594.016 C 469.115 595.011, 474.123 601.489, 479.772 608.412 L 490.045 621 512.418 621 L 534.792 621 543.190 611.250 C 547.809 605.888, 553.085 599.613, 554.915 597.308 L 558.242 593.115 554.992 587.808 C 553.204 584.888, 548.592 577.438, 544.744 571.250 L 537.746 560 512.623 560.003 L 487.500 560.007 477.644 576.108 M 421.583 592.655 L 419.913 597.500 424.706 601.750 C 436.589 612.285, 456.039 623.412, 470.742 628.086 L 477.985 630.389 480.992 627.507 C 482.647 625.922, 484 624.144, 484 623.556 C 484 622.967, 481.474 619.588, 478.386 616.048 C 475.298 612.507, 470.358 606.623, 467.408 602.972 L 462.044 596.334 445.272 592.534 C 420.907 587.014, 423.532 587.001, 421.583 592.655 M 584.500 591.670 C 575.700 593.555, 567.520 595.302, 566.322 595.550 C 564.565 595.915, 544.531 617.970, 541.691 622.665 C 540.740 624.238, 545.713 630, 548.021 630 C 551.064 630, 565.693 624.253, 575.367 619.256 C 584.442 614.569, 594.103 607.824, 601.913 600.722 L 606.069 596.943 604.090 592.472 C 603.003 590.012, 601.750 588.054, 601.306 588.120 C 600.863 588.186, 593.300 589.784, 584.500 591.670 M 488.782 628.837 C 485.096 631.939, 485.867 632.458, 496.328 633.913 C 506.191 635.285, 519.579 635.303, 529.678 633.959 C 540.762 632.483, 540.809 632.454, 537.534 629.035 L 534.749 626.129 513.243 626.240 C 491.867 626.350, 491.719 626.365, 488.782 628.837" stroke="none" fill="#d47b3a" fill-rule="evenodd"/><path d="M 505.241 281.995 C 498.671 286, 495.997 295.226, 499.463 301.929 C 500.915 304.737, 500.819 304.908, 486.338 325.129 C 478.314 336.333, 467.398 351.350, 462.079 358.500 C 449.736 375.093, 450.081 374.420, 455.179 371.944 C 459.740 369.728, 460.139 369.221, 491.242 326.146 C 501.907 311.377, 504.352 308.546, 506.242 308.784 C 511.491 309.444, 515.658 309.457, 518 308.820 C 520.286 308.198, 521.266 309.182, 529.459 320.320 C 534.387 327.019, 542.743 338.350, 548.027 345.500 C 553.312 352.650, 559.405 361.079, 561.568 364.231 C 564.303 368.217, 566.648 370.424, 569.270 371.481 C 571.344 372.316, 573.297 373, 573.612 373 C 573.926 373, 571.978 370.188, 569.284 366.750 C 564.956 361.229, 553.043 345.006, 533.485 318 C 524.557 305.672, 524.621 305.836, 526.615 300.221 C 528.611 294.602, 527.988 289.525, 524.806 285.480 C 520.513 280.023, 511.197 278.363, 505.241 281.995 M 601.819 290.749 L 574.137 291.031 577.971 301.766 C 582.847 315.419, 593.198 342.399, 595.928 348.570 L 598.020 353.298 601.843 347.899 C 603.946 344.930, 606.514 341.038, 607.549 339.250 C 608.584 337.462, 609.897 336.009, 610.466 336.020 C 612.168 336.053, 628.877 348.378, 638.230 356.500 C 672.334 386.115, 698.730 436.438, 704.563 482.962 C 706.741 500.332, 707.182 498.998, 699.250 499.011 C 695.538 499.017, 690.847 499.295, 688.827 499.629 L 685.154 500.237 691.538 509.368 C 695.049 514.391, 701.616 523.900, 706.131 530.500 C 710.646 537.100, 716.328 545.312, 718.757 548.749 L 723.174 554.998 730.768 544.249 C 734.945 538.337, 743.681 526.007, 750.181 516.849 C 756.681 507.690, 762 499.980, 762 499.715 C 762 499.449, 757.429 499.184, 751.843 499.126 C 746.257 499.068, 741.477 498.810, 741.220 498.554 C 740.964 498.297, 740.350 493.905, 739.856 488.794 C 735.398 442.693, 719.093 400.759, 691.257 363.807 C 677.081 344.987, 655.804 324.754, 636.776 312 C 633.084 309.525, 630.049 307.142, 630.032 306.705 C 630.014 306.268, 632.250 302.575, 635 298.500 C 637.750 294.425, 640 290.845, 640 290.545 C 640 290.245, 637.638 290.105, 634.750 290.234 C 631.862 290.362, 617.043 290.594, 601.819 290.749 M 398.218 401.286 L 381.936 405.353 380.337 403.071 C 379.458 401.816, 377.237 400.161, 375.401 399.394 C 365.226 395.143, 354.995 401.525, 355.004 412.118 C 355.009 417.899, 357.827 422.338, 362.920 424.585 L 367 426.385 366.976 500.942 L 366.953 575.500 361.951 577.698 C 357.886 579.484, 356.583 580.701, 354.996 584.198 C 352.551 589.585, 352.541 592.392, 354.947 597.691 C 359.370 607.434, 372.995 608.737, 380.252 600.112 L 382.911 596.952 396.706 600.418 C 404.293 602.325, 411.850 604.116, 413.500 604.399 L 416.500 604.914 413.377 602.084 C 410.921 599.859, 407.713 598.669, 398.377 596.518 C 391.844 595.012, 386.056 593.718, 385.514 593.640 C 384.972 593.563, 383.941 591.250, 383.223 588.500 C 381.435 581.653, 381.038 578.906, 381.916 579.448 C 382.324 579.700, 384.309 578.546, 386.326 576.883 C 389.454 574.305, 389.837 573.564, 388.925 571.860 C 387.914 569.970, 387.591 570.109, 382.993 574.410 C 378.190 578.902, 378.089 578.941, 374.815 577.564 L 371.500 576.171 371.244 501.288 L 370.987 426.406 374.486 425.141 C 377.908 423.904, 378.086 423.970, 382.569 428.188 C 388.057 433.349, 388.562 433.584, 389.413 431.366 C 389.886 430.134, 388.769 428.451, 385.463 425.416 L 380.854 421.184 382.427 418.142 C 383.292 416.468, 384 413.761, 384 412.125 L 384 409.151 397.649 405.928 C 408.580 403.347, 411.916 402.143, 414.399 399.882 C 416.281 398.169, 416.910 397.090, 416 397.139 C 415.175 397.183, 407.173 399.049, 398.218 401.286 M 612.519 399.963 C 614.931 402.360, 618.068 403.607, 628.951 406.497 C 636.348 408.461, 642.473 410.165, 642.562 410.284 C 642.650 410.403, 643.003 412.998, 643.346 416.051 L 643.971 421.601 639.479 425.355 C 635.596 428.602, 635.134 429.381, 636.063 431.118 C 637.088 433.033, 637.344 432.937, 641.547 429.064 C 643.972 426.829, 646.400 425, 646.944 425 C 647.487 425, 649.522 425.758, 651.466 426.685 L 655 428.370 655 457.521 C 655 473.554, 654.702 506.985, 654.337 531.812 L 653.675 576.952 650.087 578.210 C 645.297 579.889, 644.739 579.827, 644.409 577.580 C 644.254 576.524, 642.570 574.104, 640.668 572.201 C 637.294 568.827, 637.181 568.793, 636.092 570.828 C 635.123 572.640, 635.559 573.542, 639.404 577.669 C 643.664 582.243, 643.778 582.528, 642.416 585.162 C 641.637 586.668, 641 589.021, 641 590.391 C 641 591.761, 640.510 593.185, 639.911 593.555 C 639.313 593.925, 633.408 595.479, 626.789 597.009 C 617.076 599.254, 614.248 600.318, 612.127 602.522 L 609.500 605.253 612 604.651 C 613.375 604.320, 620.438 602.625, 627.696 600.884 L 640.892 597.718 643.565 600.895 C 651.182 609.947, 663.614 608.868, 668.850 598.701 C 670.720 595.069, 671.058 593.301, 670.506 590.034 C 669.684 585.168, 665.836 580.247, 661.405 578.396 L 658.217 577.064 658.633 513.782 C 658.862 478.977, 659.309 445.425, 659.625 439.221 L 660.201 427.943 663.350 426.600 C 668.696 424.322, 671.287 420.657, 671.723 414.758 C 672.020 410.737, 671.638 408.747, 670.100 406.299 C 665.578 399.102, 655.931 397.549, 648.460 402.815 L 643.994 405.963 627.487 401.482 C 618.408 399.017, 610.655 397, 610.259 397 C 609.863 397, 610.880 398.333, 612.519 399.963 M 281.754 491.359 L 262.274 518.765 272.856 518.934 C 278.675 519.027, 283.529 519.195, 283.641 519.308 C 283.753 519.420, 284.588 525.359, 285.497 532.506 C 290.149 569.101, 301.253 600.155, 320.570 630.587 C 325.785 638.803, 337.239 653.910, 340.926 657.435 L 343.996 660.370 349.748 658.036 C 355.741 655.604, 375.238 646.929, 375.853 646.420 C 376.047 646.259, 371.854 641.116, 366.535 634.989 C 355.483 622.258, 347.555 610.615, 340.256 596.396 C 330.347 577.091, 322.300 552.032, 320.031 533.409 C 319.434 528.509, 318.747 523.278, 318.505 521.784 L 318.063 519.067 328.637 518.784 L 339.210 518.500 327.303 501.500 C 320.754 492.150, 312.209 479.877, 308.314 474.226 L 301.233 463.952 281.754 491.359 M 644.877 634.750 C 641.905 636.263, 633.854 641.815, 626.987 647.089 C 614.062 657.016, 602.562 665.009, 595.312 669.107 C 592.059 670.945, 590.910 672.314, 590.168 675.237 C 589.642 677.307, 589.502 678.998, 589.856 678.995 C 591.277 678.984, 608.820 672.125, 613.500 669.750 C 616.250 668.354, 624.800 662.668, 632.500 657.113 C 640.200 651.558, 650.194 644.423, 654.710 641.257 C 659.225 638.091, 662.938 635.235, 662.960 634.911 C 663.041 633.721, 657.799 632, 654.094 632 C 651.912 632, 647.971 633.176, 644.877 634.750 M 426.500 636.519 C 413.977 638.913, 408.382 641.200, 388.500 652.048 C 371.558 661.293, 362.562 665.363, 345.500 671.504 C 338.350 674.078, 332.383 676.297, 332.239 676.436 C 331.816 676.845, 351.110 738.424, 351.932 739.291 C 352.345 739.727, 359.392 737.844, 367.591 735.108 C 393.835 726.350, 413.149 723.642, 432.942 725.944 C 438.685 726.612, 460.510 730.529, 481.442 734.647 C 522.261 742.679, 533.249 743.998, 543.141 742.052 C 546.556 741.380, 557.034 737.540, 566.425 733.519 C 575.816 729.498, 591.515 722.948, 601.310 718.965 C 621.175 710.886, 626.790 707.596, 642 695.122 C 654.252 685.074, 680.384 659.470, 684.888 653.100 C 693.339 641.151, 683.047 632.530, 668.500 639.371 C 665.750 640.664, 654.950 647.852, 644.500 655.343 C 621.766 671.641, 614.304 675.707, 598.539 680.386 C 591.960 682.339, 585.435 684.781, 584.039 685.813 C 576.025 691.738, 578.022 691.516, 534.500 691.324 C 512.500 691.227, 492.025 690.833, 489 690.448 L 483.500 689.750 487.346 688.394 C 494.605 685.835, 507.499 685, 539.756 685 C 578.382 685, 579.239 684.807, 582.480 675.380 C 585.327 667.100, 580.224 659.989, 568.744 656.237 C 560.395 653.508, 550.790 652.186, 531 651.041 C 513.788 650.046, 510.892 649.447, 485.902 641.715 C 465.519 635.410, 442.730 633.416, 426.500 636.519 M 552.500 637.123 C 550.850 637.641, 548.453 639.401, 547.174 641.033 L 544.848 644 547.769 644 C 549.376 644, 551.377 643.212, 552.217 642.250 C 553.673 640.581, 556.384 635.901, 555.785 636.090 C 555.628 636.140, 554.150 636.605, 552.500 637.123 M 615.332 638.851 C 612.490 639.833, 608.440 641.937, 606.332 643.527 C 601.835 646.918, 587 659.214, 587 659.550 C 587 659.678, 587.829 661.632, 588.841 663.894 L 590.683 668.007 598.873 662.525 C 603.378 659.510, 611.997 653.096, 618.026 648.272 C 627.690 640.538, 628.788 639.352, 627.303 638.250 C 625.011 636.550, 621.478 636.727, 615.332 638.851" stroke="none" fill="#45789c" fill-rule="evenodd"/></svg>