<?xml version="1.0" standalone="no"?>
<!DOCTYPE svg PUBLIC "-//W3C//DTD SVG 20010904//EN"
 "http://www.w3.org/TR/2001/REC-SVG-20010904/DTD/svg10.dtd">
<svg version="1.0" xmlns="http://www.w3.org/2000/svg"
 width="952.000000pt" height="813.000000pt" viewBox="0 0 952.000000 813.000000"
 preserveAspectRatio="xMidYMid meet">

<g transform="translate(0.000000,813.000000) scale(0.100000,-0.100000)"
fill="#000000" stroke="none">
<path d="M2832 7464 c-205 -55 -370 -224 -417 -429 -13 -56 -15 -421 -13
-2967 l3 -2903 26 -66 c35 -90 111 -202 166 -244 l46 -35 -550 0 c-595 0 -586
1 -585 -54 0 -63 -239 -58 2822 -58 2692 -1 2794 0 2807 18 18 25 16 58 -5 77
-17 15 -74 17 -618 17 l-599 0 42 36 c55 46 134 165 164 245 21 60 23 81 27
361 2 164 6 298 8 298 3 0 17 -6 32 -14 15 -8 67 -28 116 -45 437 -154 917
-159 1355 -15 936 308 1540 1226 1438 2184 -21 191 -39 276 -94 444 -127 384
-360 721 -676 978 -326 266 -736 425 -1180 459 -269 21 -550 -17 -822 -110
-77 -26 -148 -51 -157 -55 -17 -8 -18 28 -18 675 0 767 0 764 -70 907 -77 155
-213 263 -378 297 -100 22 -2791 21 -2870 -1z m2830 -115 c176 -37 325 -191
358 -368 6 -32 10 -334 10 -756 l0 -703 -65 -36 c-36 -20 -68 -36 -70 -36 -3
0 -5 308 -5 684 0 588 -2 685 -15 696 -20 17 -3191 16 -3211 -1 -21 -17 -21
-5126 0 -5155 14 -19 42 -19 1604 -19 1272 0 1592 3 1604 13 12 10 16 37 17
119 1 59 3 109 5 110 1 1 32 -18 69 -43 l67 -44 0 -273 c0 -367 -16 -436 -122
-552 -63 -69 -164 -121 -263 -135 -90 -12 -2656 -13 -2743 0 -176 25 -321 157
-368 333 -12 44 -14 517 -14 2907 0 3122 -4 2903 56 3028 33 68 115 152 182
186 113 57 44 55 1504 55 954 1 1362 -2 1400 -10z m106 -1307 l2 -681 -62 -48
c-92 -70 -270 -246 -348 -343 -101 -128 -164 -229 -245 -395 -160 -328 -213
-588 -202 -978 8 -262 45 -446 139 -682 131 -329 376 -666 627 -860 l90 -70
-2 -104 -2 -104 -1495 -1 -1495 -1 -3 2465 c-1 1356 0 2470 2 2475 2 7 510 10
1497 9 l1494 -1 3 -681z m1405 -412 c54 -5 127 -15 163 -21 l66 -11 -28 -29
-28 -29 -362 0 -363 0 -28 25 c-15 13 -22 25 -16 25 7 0 52 7 100 15 187 32
342 40 496 25z m514 -115 c155 -57 311 -139 441 -230 130 -92 272 -218 259
-231 -4 -4 -76 7 -160 26 -83 18 -216 47 -294 64 -160 36 -124 12 -356 233
l-108 103 33 41 c38 48 38 48 185 -6z m-1220 3 c18 -18 33 -35 33 -39 0 -5
-135 -129 -296 -272 -12 -10 -55 -27 -96 -37 -92 -24 -476 -110 -489 -110 -13
0 91 96 168 156 83 65 283 190 367 230 70 33 251 102 271 104 5 0 24 -14 42
-32z m1042 -240 c80 -78 150 -145 155 -149 4 -4 -51 -107 -123 -228 l-132
-221 -432 0 -432 0 -29 53 c-32 58 -117 204 -183 314 l-43 73 43 38 c23 21 98
89 166 150 l125 112 369 0 369 0 147 -142z m-1248 -345 c39 -71 96 -169 126
-219 l53 -90 -109 -195 c-60 -106 -154 -275 -209 -374 l-99 -180 -79 -27 c-44
-14 -164 -56 -269 -91 -104 -36 -193 -62 -197 -59 -6 7 -51 83 -205 346 -34
60 -63 113 -63 119 0 9 29 66 173 337 70 133 221 415 223 419 4 5 537 139 561
140 17 1 35 -23 94 -126z m1874 43 l230 -53 40 -74 c22 -41 59 -108 81 -149
144 -264 284 -530 284 -539 0 -6 -63 -113 -141 -238 -98 -159 -145 -228 -157
-227 -9 1 -138 44 -287 96 l-269 95 -164 299 c-90 164 -179 331 -199 369 l-35
71 112 189 c62 105 121 202 132 217 l18 26 62 -14 c35 -8 167 -38 293 -68z
m498 -196 c125 -187 193 -321 252 -492 23 -64 22 -85 -2 -70 -6 4 -39 63 -73
132 -34 69 -104 202 -155 295 -51 94 -109 204 -130 245 l-37 75 31 -30 c17
-16 69 -86 114 -155z m-3236 18 c-13 -24 -77 -146 -142 -271 -64 -126 -119
-226 -121 -224 -7 7 106 260 148 332 50 85 129 205 135 205 3 0 -6 -19 -20
-42z m2048 -305 c227 -413 355 -657 351 -668 -4 -11 -252 -390 -410 -627 l-31
-47 -395 -1 -395 0 -149 230 c-195 302 -275 432 -276 448 0 7 44 90 98 185 54
95 145 256 203 360 l104 187 431 0 432 0 37 -67z m-2221 -618 c62 -104 126
-210 142 -236 l29 -45 -3 -371 -2 -371 -53 -39 c-28 -21 -57 -42 -64 -46 -16
-10 -56 69 -111 218 -94 255 -123 412 -125 675 -1 178 14 366 35 420 10 25 10
25 24 5 8 -11 66 -105 128 -210z m3715 192 c42 -111 57 -481 27 -674 -31 -203
-96 -412 -177 -575 -22 -43 -43 -78 -49 -78 -5 0 -45 23 -88 51 l-79 51 -7
162 c-3 88 -6 257 -5 374 l0 213 58 87 c32 48 102 160 157 249 89 147 102 163
127 163 20 0 30 -7 36 -23z m-806 -386 c122 -43 241 -85 265 -92 l42 -12 0
-362 0 -362 -322 -157 c-243 -119 -323 -154 -330 -144 -4 7 -42 69 -84 138
-42 69 -111 181 -153 250 -43 69 -81 130 -84 137 -4 6 79 142 191 310 109 164
208 315 221 336 12 20 25 37 27 37 3 0 105 -36 227 -79z m-1884 -264 c106
-166 195 -307 197 -312 3 -6 -44 -92 -104 -190 -59 -99 -132 -221 -161 -272
l-53 -92 -304 152 -304 152 2 358 3 357 249 85 c137 46 252 87 255 91 3 3 10
-2 16 -11 5 -9 97 -152 204 -318z m1256 -634 c83 -135 161 -265 175 -288 l24
-43 -46 -74 c-25 -41 -90 -143 -144 -227 l-98 -151 -446 0 -445 1 -54 82
c-134 205 -241 377 -241 387 0 8 248 429 316 538 l14 22 398 0 397 -1 150
-246z m-1725 -198 c271 -136 314 -160 336 -193 94 -139 294 -446 294 -451 0
-10 -100 -101 -110 -101 -22 0 -186 76 -280 130 -259 149 -466 343 -643 604
-26 38 -46 71 -43 73 7 8 130 93 133 93 2 0 143 -70 313 -155z m2811 99 c49
-31 89 -58 89 -60 0 -3 -19 -31 -42 -62 -179 -244 -386 -436 -621 -577 -84
-50 -277 -142 -332 -159 -13 -4 -30 3 -51 22 -17 15 -48 42 -68 60 l-37 33 23
37 c12 20 80 127 151 237 l128 200 322 162 c177 89 328 162 336 162 8 1 54
-24 102 -55z m-1116 -864 c55 -56 60 -51 -75 -80 -260 -57 -596 -46 -918 31
l-52 13 47 43 48 43 450 0 451 0 49 -50z"/>
<path d="M3541 7154 c-12 -15 -21 -34 -21 -44 0 -10 9 -29 21 -44 16 -20 29
-26 58 -26 65 0 99 64 61 113 -30 38 -90 38 -119 1z"/>
<path d="M4116 7173 c-233 -3 -272 -6 -288 -20 -22 -20 -23 -51 -2 -81 l15
-22 463 0 c436 0 464 1 479 18 20 22 22 62 5 84 -11 14 -43 17 -208 21 -107 2
-316 2 -464 0z"/>
<path d="M4177 1535 c-130 -49 -206 -170 -195 -308 13 -159 134 -270 294 -271
60 0 81 4 137 32 223 110 220 418 -6 534 -54 27 -175 34 -230 13z m183 -125
c73 -37 116 -137 91 -213 -7 -20 -30 -51 -51 -71 -137 -123 -330 -13 -296 169
8 42 58 103 101 121 44 19 110 17 155 -6z"/>
<path d="M990 800 c-25 -25 -25 -42 -2 -69 16 -19 28 -21 146 -22 114 -1 131
1 143 17 18 25 16 58 -5 77 -15 14 -41 17 -140 17 -109 0 -124 -2 -142 -20z"/>
<path d="M7388 808 c-26 -21 -30 -53 -11 -76 16 -20 29 -22 142 -23 118 -2
125 -1 143 21 23 29 23 45 -2 70 -18 18 -33 20 -138 20 -79 0 -123 -4 -134
-12z"/>
</g>
</svg>
